<?xml version="1.0" encoding="UTF-8" standalone="no"?>
<!DOCTYPE svg PUBLIC "-//W3C//DTD SVG 1.1//EN"
 "http://www.w3.org/Graphics/SVG/1.1/DTD/svg11.dtd">
<!-- Generated by graphviz version 2.43.0 (0)
 -->
<!-- Title: classes_EVDM Pages: 1 -->
<svg width="1523pt" height="258pt"
 viewBox="0.00 0.00 1523.00 258.00" xmlns="http://www.w3.org/2000/svg" xmlns:xlink="http://www.w3.org/1999/xlink">
<g id="graph0" class="graph" transform="scale(1 1) rotate(0) translate(4 254)">
<title>classes_EVDM</title>
<polygon fill="white" stroke="transparent" points="-4,4 -4,-254 1519,-254 1519,4 -4,4"/>
<!-- src.BaseicComponent.Event.Event -->
<g id="node1" class="node">
<title>src.BaseicComponent.Event.Event</title>
<polygon fill="none" stroke="black" points="0,-53 0,-197 110,-197 110,-53 0,-53"/>
<text text-anchor="start" x="33.5" y="-181.8" font-family="Times,serif" font-size="14.00">Event</text>
<polyline fill="none" stroke="black" points="0,-174 110,-174 "/>
<text text-anchor="start" x="8" y="-158.8" font-family="Times,serif" font-size="14.00">content</text>
<text text-anchor="start" x="8" y="-143.8" font-family="Times,serif" font-size="14.00">importance</text>
<text text-anchor="start" x="8" y="-128.8" font-family="Times,serif" font-size="14.00">name</text>
<text text-anchor="start" x="8" y="-113.8" font-family="Times,serif" font-size="14.00">present_time</text>
<text text-anchor="start" x="8" y="-98.8" font-family="Times,serif" font-size="14.00">presenter</text>
<text text-anchor="start" x="8" y="-83.8" font-family="Times,serif" font-size="14.00">status</text>
<polyline fill="none" stroke="black" points="0,-76 110,-76 "/>
<text text-anchor="start" x="27" y="-60.8" font-family="Times,serif" font-size="14.00">cancel()</text>
</g>
<!-- src.Utils.Type.IMPORTANCE -->
<g id="node2" class="node">
<title>src.Utils.Type.IMPORTANCE</title>
<polygon fill="none" stroke="black" points="128,-75.5 128,-174.5 272,-174.5 272,-75.5 128,-75.5"/>
<text text-anchor="start" x="148.5" y="-159.3" font-family="Times,serif" font-size="14.00">IMPORTANCE</text>
<polyline fill="none" stroke="black" points="128,-151.5 272,-151.5 "/>
<text text-anchor="start" x="136" y="-136.3" font-family="Times,serif" font-size="14.00">COMMON : str</text>
<text text-anchor="start" x="136" y="-121.3" font-family="Times,serif" font-size="14.00">IMPORTANT : str</text>
<text text-anchor="start" x="136" y="-106.3" font-family="Times,serif" font-size="14.00">NONTRIVIAL : str</text>
<polyline fill="none" stroke="black" points="128,-98.5 272,-98.5 "/>
<text text-anchor="start" x="197.5" y="-83.3" font-family="Times,serif" font-size="14.00"> </text>
</g>
<!-- src.Utils.Type.MESSAGETYPE -->
<g id="node3" class="node">
<title>src.Utils.Type.MESSAGETYPE</title>
<polygon fill="none" stroke="black" points="290,-83 290,-167 420,-167 420,-83 290,-83"/>
<text text-anchor="start" x="298" y="-151.8" font-family="Times,serif" font-size="14.00">MESSAGETYPE</text>
<polyline fill="none" stroke="black" points="290,-144 420,-144 "/>
<text text-anchor="start" x="304" y="-128.8" font-family="Times,serif" font-size="14.00">PICTURE : str</text>
<text text-anchor="start" x="304" y="-113.8" font-family="Times,serif" font-size="14.00">TEXT : str</text>
<polyline fill="none" stroke="black" points="290,-106 420,-106 "/>
<text text-anchor="start" x="352.5" y="-90.8" font-family="Times,serif" font-size="14.00"> </text>
</g>
<!-- src.Message.Message.Message -->
<g id="node4" class="node">
<title>src.Message.Message.Message</title>
<polygon fill="none" stroke="black" points="438,-68 438,-182 548,-182 548,-68 438,-68"/>
<text text-anchor="start" x="461" y="-166.8" font-family="Times,serif" font-size="14.00">Message</text>
<polyline fill="none" stroke="black" points="438,-159 548,-159 "/>
<text text-anchor="start" x="446" y="-143.8" font-family="Times,serif" font-size="14.00">present_time</text>
<text text-anchor="start" x="446" y="-128.8" font-family="Times,serif" font-size="14.00">presenter</text>
<text text-anchor="start" x="446" y="-113.8" font-family="Times,serif" font-size="14.00">status</text>
<text text-anchor="start" x="446" y="-98.8" font-family="Times,serif" font-size="14.00">type</text>
<polyline fill="none" stroke="black" points="438,-91 548,-91 "/>
<text text-anchor="start" x="490.5" y="-75.8" font-family="Times,serif" font-size="14.00"> </text>
</g>
<!-- src.Message.PictureMessage.PictureMessage -->
<g id="node5" class="node">
<title>src.Message.PictureMessage.PictureMessage</title>
<polygon fill="none" stroke="black" points="566.5,-90.5 566.5,-159.5 697.5,-159.5 697.5,-90.5 566.5,-90.5"/>
<text text-anchor="start" x="574.5" y="-144.3" font-family="Times,serif" font-size="14.00">PictureMessage</text>
<polyline fill="none" stroke="black" points="566.5,-136.5 697.5,-136.5 "/>
<text text-anchor="start" x="586.5" y="-121.3" font-family="Times,serif" font-size="14.00">picture_path</text>
<polyline fill="none" stroke="black" points="566.5,-113.5 697.5,-113.5 "/>
<text text-anchor="start" x="611" y="-99.3" font-family="Times,serif" font-style="italic" font-size="14.00">load</text>
<text text-anchor="start" x="642" y="-99.3" font-family="Times,serif" font-size="14.00">()</text>
</g>
<!-- src.Utils.Status.Status -->
<g id="node6" class="node">
<title>src.Utils.Status.Status</title>
<polygon fill="none" stroke="black" points="715.5,-23 715.5,-227 882.5,-227 882.5,-23 715.5,-23"/>
<text text-anchor="start" x="775.5" y="-211.8" font-family="Times,serif" font-size="14.00">Status</text>
<polyline fill="none" stroke="black" points="715.5,-204 882.5,-204 "/>
<text text-anchor="start" x="723.5" y="-188.8" font-family="Times,serif" font-size="14.00">BEGIN : str</text>
<text text-anchor="start" x="723.5" y="-173.8" font-family="Times,serif" font-size="14.00">CANCELED : str</text>
<text text-anchor="start" x="723.5" y="-158.8" font-family="Times,serif" font-size="14.00">ERROR : str</text>
<text text-anchor="start" x="723.5" y="-143.8" font-family="Times,serif" font-size="14.00">End : str</text>
<text text-anchor="start" x="723.5" y="-128.8" font-family="Times,serif" font-size="14.00">FINISHED : str</text>
<text text-anchor="start" x="723.5" y="-113.8" font-family="Times,serif" font-size="14.00">HIDE : str</text>
<text text-anchor="start" x="723.5" y="-98.8" font-family="Times,serif" font-size="14.00">STOP : str</text>
<text text-anchor="start" x="723.5" y="-83.8" font-family="Times,serif" font-size="14.00">SUBMITTED : str</text>
<text text-anchor="start" x="723.5" y="-68.8" font-family="Times,serif" font-size="14.00">UNFINISHED : str</text>
<text text-anchor="start" x="723.5" y="-53.8" font-family="Times,serif" font-size="14.00">UNSUBMITTED : str</text>
<polyline fill="none" stroke="black" points="715.5,-46 882.5,-46 "/>
<text text-anchor="start" x="796.5" y="-30.8" font-family="Times,serif" font-size="14.00"> </text>
</g>
<!-- src.Message.TextMessage.TextMessage -->
<g id="node7" class="node">
<title>src.Message.TextMessage.TextMessage</title>
<polygon fill="none" stroke="black" points="901,-90.5 901,-159.5 1011,-159.5 1011,-90.5 901,-90.5"/>
<text text-anchor="start" x="909" y="-144.3" font-family="Times,serif" font-size="14.00">TextMessage</text>
<polyline fill="none" stroke="black" points="901,-136.5 1011,-136.5 "/>
<text text-anchor="start" x="941.5" y="-121.3" font-family="Times,serif" font-size="14.00">text</text>
<polyline fill="none" stroke="black" points="901,-113.5 1011,-113.5 "/>
<text text-anchor="start" x="953.5" y="-98.3" font-family="Times,serif" font-size="14.00"> </text>
</g>
<!-- src.BaseicComponent.User.User -->
<g id="node8" class="node">
<title>src.BaseicComponent.User.User</title>
<polygon fill="none" stroke="black" points="1029.5,-0.5 1029.5,-249.5 1340.5,-249.5 1340.5,-0.5 1029.5,-0.5"/>
<text text-anchor="start" x="1167.5" y="-234.3" font-family="Times,serif" font-size="14.00">User</text>
<polyline fill="none" stroke="black" points="1029.5,-226.5 1340.5,-226.5 "/>
<text text-anchor="start" x="1132" y="-211.3" font-family="Times,serif" font-size="14.00">events : list</text>
<text text-anchor="start" x="1132" y="-196.3" font-family="Times,serif" font-size="14.00">id</text>
<text text-anchor="start" x="1132" y="-181.3" font-family="Times,serif" font-size="14.00">messages : list</text>
<text text-anchor="start" x="1132" y="-166.3" font-family="Times,serif" font-size="14.00">name</text>
<text text-anchor="start" x="1132" y="-151.3" font-family="Times,serif" font-size="14.00">position</text>
<text text-anchor="start" x="1132" y="-136.3" font-family="Times,serif" font-size="14.00">status</text>
<text text-anchor="start" x="1132" y="-121.3" font-family="Times,serif" font-size="14.00">votes : list</text>
<polyline fill="none" stroke="black" points="1029.5,-113.5 1340.5,-113.5 "/>
<text text-anchor="start" x="1037.5" y="-98.3" font-family="Times,serif" font-size="14.00">begin_vote(targetVote)</text>
<text text-anchor="start" x="1037.5" y="-83.3" font-family="Times,serif" font-size="14.00">cancel_event(event)</text>
<text text-anchor="start" x="1037.5" y="-68.3" font-family="Times,serif" font-size="14.00">cancel_vote(targetVote)</text>
<text text-anchor="start" x="1037.5" y="-53.3" font-family="Times,serif" font-size="14.00">create_event(name, content, importance)</text>
<text text-anchor="start" x="1037.5" y="-38.3" font-family="Times,serif" font-size="14.00">create_message(message)</text>
<text text-anchor="start" x="1037.5" y="-23.3" font-family="Times,serif" font-size="14.00">create_vote(event, options)</text>
<text text-anchor="start" x="1037.5" y="-8.3" font-family="Times,serif" font-size="14.00">end_vote(targetVote)</text>
</g>
<!-- src.BaseicComponent.Vote.Vote -->
<g id="node9" class="node">
<title>src.BaseicComponent.Vote.Vote</title>
<polygon fill="none" stroke="black" points="1359,-23 1359,-227 1515,-227 1515,-23 1359,-23"/>
<text text-anchor="start" x="1421" y="-211.8" font-family="Times,serif" font-size="14.00">Vote</text>
<polyline fill="none" stroke="black" points="1359,-204 1515,-204 "/>
<text text-anchor="start" x="1367" y="-188.8" font-family="Times,serif" font-size="14.00">event</text>
<text text-anchor="start" x="1367" y="-173.8" font-family="Times,serif" font-size="14.00">options</text>
<text text-anchor="start" x="1367" y="-158.8" font-family="Times,serif" font-size="14.00">options_status : list</text>
<text text-anchor="start" x="1367" y="-143.8" font-family="Times,serif" font-size="14.00">present_time</text>
<text text-anchor="start" x="1367" y="-128.8" font-family="Times,serif" font-size="14.00">presenter</text>
<text text-anchor="start" x="1367" y="-113.8" font-family="Times,serif" font-size="14.00">status</text>
<text text-anchor="start" x="1367" y="-98.8" font-family="Times,serif" font-size="14.00">votedUsers : list</text>
<polyline fill="none" stroke="black" points="1359,-91 1515,-91 "/>
<text text-anchor="start" x="1376.5" y="-75.8" font-family="Times,serif" font-size="14.00">add(user, option)</text>
<text text-anchor="start" x="1376.5" y="-60.8" font-family="Times,serif" font-size="14.00">begin()</text>
<text text-anchor="start" x="1376.5" y="-45.8" font-family="Times,serif" font-size="14.00">end()</text>
<text text-anchor="start" x="1376.5" y="-30.8" font-family="Times,serif" font-size="14.00">result()</text>
</g>
</g>
</svg>
